<?xml version="1.0" ?><svg style="enable-background:new 0 0 32 32;" version="1.1" viewBox="0 0 32 32" xml:space="preserve" xmlns="http://www.w3.org/2000/svg" xmlns:xlink="http://www.w3.org/1999/xlink"><g id="Guides"/><g id="_x32_0"/><g id="_x31_9"/><g id="_x31_8"/><g id="_x31_7"/><g id="_x31_6"/><g id="_x31_5"/><g id="_x31_4"/><g id="_x31_3"/><g id="_x31_2"/><g id="_x31_1"/><g id="_x31_0"/><g id="_x30_9"/><g id="_x30_8"/><g id="_x30_7"/><g id="_x30_6"/><g id="_x30_5"/><g id="_x30_4"/><g id="_x30_3"/><g id="_x30_2"/><g id="_x30_1"><g><path d="M29,8h-9V3c0-0.5527344-0.4472656-1-1-1H3C2.4477539,2,2,2.4472656,2,3v26c0,0.5527344,0.4477539,1,1,1h5h6h5h10    c0.5527344,0,1-0.4472656,1-1V9C30,8.4472656,29.5527344,8,29,8z M4,4h14v5v19h-3v-3c0-0.5527344-0.4477539-1-1-1H8    c-0.5522461,0-1,0.4472656-1,1v3H4V4z M9,28v-2h4v2H9z M20,28v-1h2c0.5527344,0,1-0.4472656,1-1s-0.4472656-1-1-1h-2v-3h2    c0.5527344,0,1-0.4472656,1-1s-0.4472656-1-1-1h-2V10h8v8h-2c-0.5527344,0-1,0.4472656-1,1s0.4472656,1,1,1h2v3h-2    c-0.5527344,0-1,0.4472656-1,1s0.4472656,1,1,1h2v3H20z"/><path d="M9,10h1v1c0,0.5527344,0.4477539,1,1,1s1-0.4472656,1-1v-1h1c0.5522461,0,1-0.4472656,1-1s-0.4477539-1-1-1h-1V7    c0-0.5527344-0.4477539-1-1-1s-1,0.4472656-1,1v1H9C8.4477539,8,8,8.4472656,8,9S8.4477539,10,9,10z"/><path d="M6,16h2c0.5522461,0,1-0.4472656,1-1s-0.4477539-1-1-1H6c-0.5522461,0-1,0.4472656-1,1S5.4477539,16,6,16z"/><path d="M13,15c0,0.5527344,0.4477539,1,1,1h2c0.5522461,0,1-0.4472656,1-1s-0.4477539-1-1-1h-2    C13.4477539,14,13,14.4472656,13,15z"/><path d="M8,21c0.5522461,0,1-0.4472656,1-1s-0.4477539-1-1-1H6c-0.5522461,0-1,0.4472656-1,1s0.4477539,1,1,1H8z"/><path d="M16,19h-2c-0.5522461,0-1,0.4472656-1,1s0.4477539,1,1,1h2c0.5522461,0,1-0.4472656,1-1S16.5522461,19,16,19z"/><path d="M27,16v-4c0-0.5527344-0.4472656-1-1-1h-4c-0.5527344,0-1,0.4472656-1,1v4c0,0.5527344,0.4472656,1,1,1h4    C26.5527344,17,27,16.5527344,27,16z M25,15h-2v-2h2V15z"/></g></g></svg>