<svg id="Layer_1" data-name="Layer 1" xmlns="http://www.w3.org/2000/svg" viewBox="0 0 48 48"><defs><style>.cls-1{fill:#b2e5fb;}.cls-2{fill:#72aaed;}.cls-3{fill:#c6c3d8;}.cls-4{fill:#edebf2;}.cls-5{fill:#687d94;}</style></defs><title>bag, medicine, medical, healthcare, hospital, health</title><path class="cls-1" d="M18.12,8.33V35.75A5.88,5.88,0,0,0,24,41.62h4.9v4.9h5.87v-4.9h4.9a5.87,5.87,0,0,0,5.87-5.87V8.33Z"/><path class="cls-2" d="M30.85,44.56V39.67H24a3.93,3.93,0,0,1-3.92-3.92V16.17s2.94-3.92,11.75,0,11.75,0,11.75,0V35.75a3.92,3.92,0,0,1-3.91,3.92H32.81v4.89Z"/><rect class="cls-3" x="27.92" y="44.56" width="7.83" height="2.94"/><rect class="cls-4" x="39.67" y="30.85" width="3.92" height="1.96"/><rect class="cls-4" x="41.63" y="26.94" width="1.96" height="1.96"/><rect class="cls-4" x="41.63" y="34.77" width="1.96" height="1.96"/><rect class="cls-4" x="39.67" y="23.02" width="3.92" height="1.96"/><rect class="cls-4" x="41.63" y="19.1" width="1.96" height="1.96"/><rect class="cls-4" x="39.67" y="15.19" width="3.92" height="1.96"/><path class="cls-1" d="M31.83.5h0a3.92,3.92,0,0,1,3.92,3.92V8.33a0,0,0,0,1,0,0H27.92a0,0,0,0,1,0,0V4.42A3.92,3.92,0,0,1,31.83.5Z"/><path class="cls-5" d="M3.44,3.44h28.4a1,1,0,0,1,1,1v0a1,1,0,0,1-1,1H3.44a0,0,0,0,1,0,0v-2A0,0,0,0,1,3.44,3.44Z"/><rect class="cls-5" x="2.46" y="2.46" width="1.96" height="3.92"/><rect class="cls-3" x="7.35" y="0.5" width="3.92" height="47"/></svg>