<?xml version="1.0" ?><svg xmlns="http://www.w3.org/2000/svg" xmlns:xlink="http://www.w3.org/1999/xlink" version="1.1" viewBox="0 0 512 512" style="enable-background:new 0 0 512 512;" xml:space="preserve"><g id="_x31_4_Skill_Development"><g><g><path d="M485.988,273.766h-0.721c-0.048-0.192-0.144-0.433-0.24-0.625l0.481-0.481c1.779-1.731,2.74-4.086,2.74-6.585     c0-2.5-0.961-4.855-2.74-6.586l-8.893-8.941c-3.557-3.509-9.71-3.509-13.219,0l-0.481,0.481     c-0.192-0.096-0.385-0.144-0.625-0.241v-0.673c0-5.143-4.182-9.325-9.325-9.325H440.37c-5.143,0-9.325,4.182-9.325,9.325v0.673     c-0.24,0.096-0.433,0.144-0.625,0.241l-0.481-0.481c-3.653-3.605-9.566-3.605-13.171,0l-8.941,8.941     c-3.653,3.605-3.653,9.518,0,13.171l0.481,0.481c-0.096,0.192-0.192,0.433-0.24,0.625h-0.721c-5.143,0-9.325,4.182-9.325,9.325     v12.642c0,5.143,4.182,9.325,9.325,9.325h0.673c0.096,0.192,0.192,0.385,0.288,0.577l-0.481,0.481     c-3.653,3.653-3.653,9.566,0,13.219l8.941,8.941c3.605,3.605,9.518,3.605,13.171,0l0.481-0.481     c0.192,0.048,0.385,0.144,0.625,0.24v0.673c0,5.143,4.182,9.325,9.325,9.325h12.594c5.143,0,9.325-4.182,9.325-9.325v-0.673     c0.24-0.096,0.432-0.192,0.625-0.288l0.481,0.481c3.509,3.557,9.662,3.557,13.219,0.048l8.893-8.941     c3.653-3.653,3.653-9.566,0-13.219l-0.481-0.481c0.096-0.192,0.192-0.385,0.24-0.577h0.721c5.143,0,9.325-4.182,9.325-9.325     v-12.642C495.313,277.948,491.131,273.766,485.988,273.766z M459.694,289.389c0,7.21-5.816,13.075-13.027,13.075     c-7.162,0-13.027-5.864-13.027-13.075c0-7.162,5.865-13.027,13.027-13.027C453.878,276.362,459.694,282.226,459.694,289.389z"/></g><g><path d="M469.356,182.627c-0.913,0.913-2.163,1.394-3.365,1.394c-1.25,0-2.499-0.481-3.413-1.394l-11.104-11.104v46.483     c0,2.692-2.163,4.807-4.807,4.807c-2.644,0-4.807-2.115-4.807-4.807v-46.483l-11.104,11.104c-1.875,1.875-4.903,1.875-6.778,0     c-1.874-1.874-1.874-4.951,0-6.826l19.276-19.276c0.433-0.432,0.961-0.769,1.538-1.009c0.24-0.096,0.433-0.192,0.673-0.192     c0.384-0.144,0.769-0.192,1.202-0.192c0.337,0,0.625,0.048,0.961,0.096c0.336,0.048,0.625,0.144,0.913,0.288     c0.577,0.24,1.105,0.577,1.538,1.009l19.276,19.276C471.231,177.676,471.231,180.752,469.356,182.627z"/></g><g><path d="M314.14,156.717h-2.596c-0.481-1.25-1.01-2.5-1.538-3.701l1.827-1.827c2.163-2.163,3.365-5.047,3.365-8.124     s-1.202-5.961-3.365-8.124l-13.219-13.219c-4.471-4.47-11.777-4.47-16.247,0l-1.827,1.827c-1.202-0.529-2.452-1.058-3.701-1.538     v-2.548c0-6.345-5.192-11.489-11.489-11.489h-18.699c-6.345,0-11.489,5.143-11.489,11.489v2.548     c-1.25,0.481-2.5,1.01-3.701,1.538l-1.827-1.827c-4.47-4.47-11.777-4.47-16.247,0l-13.219,13.219     c-2.163,2.163-3.365,5.047-3.365,8.124s1.202,5.961,3.365,8.124l1.827,1.827c-0.577,1.25-1.057,2.452-1.538,3.701h-2.596     c-6.345,0-11.489,5.191-11.489,11.488v18.699c0,6.345,5.143,11.489,11.489,11.489h2.596c0.433,1.25,0.961,2.5,1.538,3.749     l-1.827,1.779c-4.47,4.471-4.47,11.777,0,16.247l13.219,13.219c4.47,4.47,11.777,4.47,16.247,0l1.827-1.827     c1.202,0.577,2.452,1.058,3.701,1.538v2.596c0,6.345,5.143,11.488,11.489,11.488h18.699c6.297,0,11.489-5.143,11.489-11.488     v-2.596c1.25-0.481,2.452-0.961,3.701-1.538l1.827,1.827c4.47,4.47,11.777,4.47,16.247,0l13.219-13.219     c4.47-4.47,4.47-11.777,0-16.247l-1.827-1.826c0.529-1.202,1.057-2.452,1.538-3.701h2.596c6.297,0,11.441-5.143,11.441-11.489     v-18.699C325.581,161.909,320.437,156.717,314.14,156.717z M277.559,177.579c0,11.873-9.662,21.583-21.535,21.583     c-11.921,0-21.631-9.71-21.631-21.583c0-11.921,9.71-21.583,21.631-21.583C267.897,155.996,277.559,165.658,277.559,177.579z"/><path d="M309.285,318.23c0,29.418-23.89,53.309-53.261,53.309c-29.418,0-53.309-23.891-53.309-53.309     c0-29.37,23.89-53.261,53.309-53.261C285.395,264.969,309.285,288.86,309.285,318.23z"/></g><g><path d="M278.088,37.794c-0.913,0.913-2.163,1.394-3.365,1.394c-1.25,0-2.452-0.481-3.413-1.394l-10.527-10.527v44.753     c0,2.644-2.115,4.807-4.807,4.807c-2.644,0-4.807-2.163-4.807-4.807V27.266L240.69,37.794c-1.874,1.875-4.951,1.875-6.826,0     c-1.875-1.923-1.875-4.951,0-6.826l18.507-18.458l0.241-0.241c1.154-1.154,2.788-1.634,4.326-1.298     c0.337,0.048,0.625,0.144,0.913,0.288c0.577,0.192,1.106,0.577,1.538,1.009l18.699,18.699     C279.963,32.843,279.963,35.871,278.088,37.794z"/></g><g><path d="M104.606,273.766h-0.673c-0.096-0.192-0.144-0.433-0.241-0.625l0.481-0.481c3.653-3.653,3.653-9.566,0-13.171     l-8.941-8.941c-3.653-3.605-9.566-3.653-13.171,0l-0.481,0.481c-0.24-0.096-0.433-0.144-0.625-0.241v-0.673     c0-5.143-4.182-9.325-9.325-9.325H58.988c-5.143,0-9.325,4.182-9.325,9.325v0.673c-0.192,0.096-0.385,0.144-0.577,0.241     l-0.481-0.481c-3.653-3.605-9.566-3.605-13.219,0l-8.941,8.941c-1.73,1.731-2.692,4.086-2.692,6.586     c0,2.499,0.961,4.855,2.692,6.585l0.529,0.481c-0.096,0.192-0.192,0.433-0.288,0.625h-0.673c-5.143,0-9.325,4.182-9.325,9.325     v12.642c0,5.143,4.182,9.325,9.325,9.325h0.673c0.096,0.192,0.192,0.385,0.24,0.577l-0.481,0.481     c-3.605,3.653-3.605,9.566,0,13.219l8.941,8.941c3.653,3.605,9.566,3.605,13.219,0l0.432-0.481     c0.24,0.048,0.433,0.144,0.625,0.24v0.673c0,5.143,4.182,9.325,9.325,9.325H71.63c5.143,0,9.325-4.182,9.325-9.325v-0.673     c0.192-0.096,0.433-0.192,0.625-0.288l0.481,0.529c3.653,3.605,9.566,3.605,13.171,0l8.941-8.941     c3.605-3.653,3.605-9.566,0-13.219l-0.481-0.481c0.096-0.192,0.144-0.385,0.241-0.577h0.673c5.143,0,9.325-4.182,9.325-9.325     v-12.642C113.931,277.948,109.749,273.766,104.606,273.766z M65.333,302.463c-7.21,0-13.075-5.864-13.075-13.075     c0-7.162,5.864-13.027,13.075-13.027c7.162,0,13.027,5.865,13.027,13.027C78.36,296.599,72.495,302.463,65.333,302.463z"/></g><g><path d="M119.796,479.263c0,12.065-9.854,21.871-21.92,21.871H32.742c-12.065,0-21.872-9.806-21.872-21.871     c0-25.333,20.574-45.906,45.906-45.906h17.065C99.174,433.356,119.796,453.93,119.796,479.263z"/><path d="M347.981,466.332c0,19.228-15.574,34.802-34.802,34.802H198.774c-19.18,0-34.802-15.574-34.802-34.802     c0-42.445,34.562-77.007,77.055-77.007h29.947C313.419,389.325,347.981,423.887,347.981,466.332z"/><path d="M32.934,388.027c0-17.882,14.517-32.399,32.399-32.399c17.882,0,32.399,14.517,32.399,32.399     c0,17.882-14.517,32.447-32.399,32.447C47.451,420.474,32.934,405.909,32.934,388.027z"/><path d="M414.269,388.027c0-17.882,14.517-32.399,32.399-32.399c17.882,0,32.399,14.517,32.399,32.399     c0,17.882-14.517,32.447-32.399,32.447C428.785,420.474,414.269,405.909,414.269,388.027z"/><path d="M501.13,479.263c0,12.065-9.806,21.871-21.871,21.871h-65.134c-12.114,0-21.92-9.806-21.92-21.871     c0-25.333,20.622-45.906,45.954-45.906h17.065C480.508,433.356,501.13,453.93,501.13,479.263z"/></g><g><path d="M88.022,182.627c-0.961,0.913-2.163,1.394-3.413,1.394c-1.202,0-2.452-0.481-3.365-1.394L70.14,171.523v46.483     c0,2.692-2.163,4.807-4.807,4.807c-2.692,0-4.807-2.115-4.807-4.807v-46.483l-11.104,11.104c-1.875,1.875-4.903,1.875-6.826,0     c-1.875-1.874-1.875-4.951,0-6.826l19.324-19.276c0.433-0.481,0.961-0.769,1.538-1.009c0.577-0.241,1.202-0.385,1.875-0.385     c0.625,0,1.202,0.096,1.779,0.385c0.288,0.096,0.577,0.24,0.865,0.432c0.24,0.144,0.481,0.337,0.721,0.577l0.24,0.24     l19.084,19.036C89.896,177.676,89.896,180.752,88.022,182.627z"/></g></g></g><g id="Layer_1"/></svg>